<svg width="26" height="26" viewBox="0 0 26 26" fill="none" xmlns="http://www.w3.org/2000/svg">
<mask id="mask0_652_11154" style="mask-type:alpha" maskUnits="userSpaceOnUse" x="0" y="0" width="26" height="26">
<rect width="26" height="26" fill="#D9D9D9"/>
</mask>
<g mask="url(#mask0_652_11154)">
<path d="M9.75041 21.6673C9.15457 21.6673 8.6445 21.4552 8.2202 21.0309C7.79589 20.6066 7.58374 20.0965 7.58374 19.5007C7.58374 18.9048 7.79589 18.3947 8.2202 17.9704C8.6445 17.5461 9.15457 17.334 9.75041 17.334C10.3462 17.334 10.8563 17.5461 11.2806 17.9704C11.7049 18.3947 11.9171 18.9048 11.9171 19.5007C11.9171 20.0965 11.7049 20.6066 11.2806 21.0309C10.8563 21.4552 10.3462 21.6673 9.75041 21.6673ZM16.2504 21.6673C15.6546 21.6673 15.1445 21.4552 14.7202 21.0309C14.2959 20.6066 14.0837 20.0965 14.0837 19.5007C14.0837 18.9048 14.2959 18.3947 14.7202 17.9704C15.1445 17.5461 15.6546 17.334 16.2504 17.334C16.8462 17.334 17.3563 17.5461 17.7806 17.9704C18.2049 18.3947 18.4171 18.9048 18.4171 19.5007C18.4171 20.0965 18.2049 20.6066 17.7806 21.0309C17.3563 21.4552 16.8462 21.6673 16.2504 21.6673ZM9.75041 15.1673C9.15457 15.1673 8.6445 14.9552 8.2202 14.5309C7.79589 14.1066 7.58374 13.5965 7.58374 13.0007C7.58374 12.4048 7.79589 11.8947 8.2202 11.4704C8.6445 11.0461 9.15457 10.834 9.75041 10.834C10.3462 10.834 10.8563 11.0461 11.2806 11.4704C11.7049 11.8947 11.9171 12.4048 11.9171 13.0007C11.9171 13.5965 11.7049 14.1066 11.2806 14.5309C10.8563 14.9552 10.3462 15.1673 9.75041 15.1673ZM16.2504 15.1673C15.6546 15.1673 15.1445 14.9552 14.7202 14.5309C14.2959 14.1066 14.0837 13.5965 14.0837 13.0007C14.0837 12.4048 14.2959 11.8947 14.7202 11.4704C15.1445 11.0461 15.6546 10.834 16.2504 10.834C16.8462 10.834 17.3563 11.0461 17.7806 11.4704C18.2049 11.8947 18.4171 12.4048 18.4171 13.0007C18.4171 13.5965 18.2049 14.1066 17.7806 14.5309C17.3563 14.9552 16.8462 15.1673 16.2504 15.1673ZM9.75041 8.66732C9.15457 8.66732 8.6445 8.45517 8.2202 8.03086C7.79589 7.60655 7.58374 7.09648 7.58374 6.50065C7.58374 5.90482 7.79589 5.39475 8.2202 4.97044C8.6445 4.54614 9.15457 4.33398 9.75041 4.33398C10.3462 4.33398 10.8563 4.54614 11.2806 4.97044C11.7049 5.39475 11.9171 5.90482 11.9171 6.50065C11.9171 7.09648 11.7049 7.60655 11.2806 8.03086C10.8563 8.45517 10.3462 8.66732 9.75041 8.66732ZM16.2504 8.66732C15.6546 8.66732 15.1445 8.45517 14.7202 8.03086C14.2959 7.60655 14.0837 7.09648 14.0837 6.50065C14.0837 5.90482 14.2959 5.39475 14.7202 4.97044C15.1445 4.54614 15.6546 4.33398 16.2504 4.33398C16.8462 4.33398 17.3563 4.54614 17.7806 4.97044C18.2049 5.39475 18.4171 5.90482 18.4171 6.50065C18.4171 7.09648 18.2049 7.60655 17.7806 8.03086C17.3563 8.45517 16.8462 8.66732 16.2504 8.66732Z" fill="#757575"/>
</g>
</svg>
